<svg xmlns="http://www.w3.org/2000/svg" width="144" height="144" viewBox="0 0 192 192"><path fill="none" d="M0 0h192v192H0z"/><circle fill="#FFF" cx="96" cy="96" r="88"/><path fill="#FFF" fill-opacity=".2" d="M96 8.92c48.45 0 87.74 39.15 87.99 87.54 0-.15.01-.3.01-.46 0-48.6-39.4-88-88-88S8 47.4 8 96c0 .15.01.3.01.46C8.26 48.07 47.55 8.92 96 8.92z"/><path fill="#263238" fill-opacity=".15" d="M96 183.08c48.45 0 87.74-39.15 87.99-87.54 0 .15.01.3.01.46 0 48.6-39.4 88-88 88S8 144.6 8 96c0-.15.01-.3.01-.46.25 48.39 39.54 87.54 87.99 87.54z"/><path fill="#4285F4" d="M135.03 141.05C146.02 130.81 153 115.56 153 96c0-3.55-.33-7.36-1.14-11H96.03v22.95h32.11c-1.61 8.09-6 14.26-12.28 18.25v2.98l15.65 11.87h3.52z"/><path fill="#34A853" d="M62.33 107.1c4.64 14.17 17.92 24.36 33.66 24.36 7.69 0 14.48-1.83 19.88-5.25l19.16 14.85C124.56 150.8 110.61 156 95.99 156c-23.71 0-44.06-13.6-53.79-33.46l.67-4.06 16.25-11.38h3.21z"/><path fill="#FBBC05" d="M62.35 84.84A35.738 35.738 0 0 0 60.56 96c0 3.9.63 7.65 1.79 11.16l-20.13 15.42c-3.93-8-6.14-17.02-6.14-26.58 0-9.56 2.21-18.58 6.14-26.58l3.99-.86 15.24 11.9.9 4.38z"/><path fill="#EA4335" d="M95.99 60.55c8.45 0 16.08 3 22.07 7.91L135.5 51c-10.63-9.27-24.26-15-39.52-15-23.7 0-44.05 13.59-53.78 33.44l20.14 15.41c4.66-14.14 17.92-24.3 33.65-24.3z"/><radialGradient id="a" cx="319.909" cy="-121.658" r="190.731" gradientTransform="translate(-258.667 146.104) scale(.9167)" gradientUnits="userSpaceOnUse"><stop offset="0" stop-color="#fff"/><stop offset="1" stop-color="#fff" stop-opacity="0"/></radialGradient><circle fill="url(#a)" fill-opacity=".1" cx="96" cy="96" r="88"/></svg>